HIERARCHY
ROOT hip
{
  OFFSET 0 0 0
  CHANNELS 6 Xposition Yposition Zposition Zrotation Yrotation Xrotation
  JOINT abdomen
  {
    OFFSET 0 20.6881 -0.73152
    CHANNELS 3 Zrotation Xrotation Yrotation
    JOINT chest
    {
      OFFSET 0 11.7043 -0.48768
      CHANNELS 3 Zrotation Xrotation Yrotation
      JOINT neck
      {
        OFFSET 0 22.1894 -2.19456
        CHANNELS 3 Zrotation Xrotation Yrotation
        JOINT head
        {
          OFFSET -0.24384 7.07133 1.2192
          CHANNELS 3 Zrotation Xrotation Yrotation
          JOINT leftEye
          {
            OFFSET 4.14528 8.04674 8.04672
            CHANNELS 3 Zrotation Xrotation Yrotation
            End Site
            {
              OFFSET 1 0 0
            }
          }
          JOINT rightEye
          {
            OFFSET -3.6576 8.04674 8.04672
            CHANNELS 3 Zrotation Xrotation Yrotation
            End Site
            {
              OFFSET 1 0 0
            }
          }
        }
      }
      JOINT rCollar
      {
        OFFSET -2.68224 19.2634 -4.8768
        CHANNELS 3 Zrotation Xrotation Yrotation
        JOINT rShldr
        {
          OFFSET -8.77824 -1.95073 1.46304
          CHANNELS 3 Zrotation Xrotation Yrotation
          JOINT rForeArm
          {
            OFFSET -28.1742 -1.7115 0.48768
            CHANNELS 3 Zrotation Xrotation Yrotation
            JOINT rHand
            {
              OFFSET -22.5879 0.773209 7.07136
              CHANNELS 3 Zrotation Xrotation Yrotation
              JOINT rThumb1
              {
                OFFSET -1.2192 -0.487915 3.41376
                CHANNELS 3 Zrotation Xrotation Yrotation
                JOINT rThumb2
                {
                  OFFSET -3.37035 -0.52449 3.41376
                  CHANNELS 3 Zrotation Xrotation Yrotation
                  End Site
                  {
                    OFFSET -1.78271 -1.18214 1.43049
                  }
                }
              }
              JOINT rIndex1
              {
                OFFSET -7.75947 0.938293 5.60832
                CHANNELS 3 Zrotation Xrotation Yrotation
                JOINT rIndex2
                {
                  OFFSET -2.54057 -0.884171 1.56538
                  CHANNELS 3 Zrotation Xrotation Yrotation
                  End Site
                  {
                    OFFSET -1.62519 -0.234802 1.16502
                  }
                }
              }
              JOINT rMid1
              {
                OFFSET -8.24714 1.18213 3.41376
                CHANNELS 3 Zrotation Xrotation Yrotation
                JOINT rMid2
                {
                  OFFSET -3.10165 -0.590103 1.0647
                  CHANNELS 3 Zrotation Xrotation Yrotation
                  End Site
                  {
                    OFFSET -2.48547 -0.328903 0.83742
                  }
                }
              }
              JOINT rRing1
              {
                OFFSET -8.82822 0.546677 1.51678
                CHANNELS 3 Zrotation Xrotation Yrotation
                JOINT rRing2
                {
                  OFFSET -2.60934 -0.819778 -0.0198488
                  CHANNELS 3 Zrotation Xrotation Yrotation
                  End Site
                  {
                    OFFSET -2.33842 -0.294052 0.168128
                  }
                }
              }
              JOINT rPinky1
              {
                OFFSET -8.27202 -0.0477905 -0.4584
                CHANNELS 3 Zrotation Xrotation Yrotation
                JOINT rPinky2
                {
                  OFFSET -1.82734 -0.647385 -0.700984
                  CHANNELS 3 Zrotation Xrotation Yrotation
                  End Site
                  {
                    OFFSET -1.69225 -0.51767 -0.607171
                  }
                }
              }
            }
          }
        }
      }
      JOINT lCollar
      {
        OFFSET 2.68224 19.2634 -4.8768
        CHANNELS 3 Zrotation Xrotation Yrotation
        JOINT lShldr
        {
          OFFSET 8.77824 -1.95073 1.46304
          CHANNELS 3 Zrotation Xrotation Yrotation
          JOINT lForeArm
          {
            OFFSET 28.1742 -1.7115 0.48768
            CHANNELS 3 Zrotation Xrotation Yrotation
            JOINT lHand
            {
              OFFSET 22.5879 0.773209 7.07136
              CHANNELS 3 Zrotation Xrotation Yrotation
              JOINT lThumb1
              {
                OFFSET 1.2192 -0.487915 3.41376
                CHANNELS 3 Zrotation Xrotation Yrotation
                JOINT lThumb2
                {
                  OFFSET 3.37035 -0.52449 3.41376
                  CHANNELS 3 Zrotation Xrotation Yrotation
                  End Site
                  {
                    OFFSET 1.78271 -1.18214 1.43049
                  }
                }
              }
              JOINT lIndex1
              {
                OFFSET 7.75947 0.938293 5.60832
                CHANNELS 3 Zrotation Xrotation Yrotation
                JOINT lIndex2
                {
                  OFFSET 2.54057 -0.884171 1.56538
                  CHANNELS 3 Zrotation Xrotation Yrotation
                  End Site
                  {
                    OFFSET 1.62519 -0.234802 1.16502
                  }
                }
              }
              JOINT lMid1
              {
                OFFSET 8.24714 1.18213 3.41376
                CHANNELS 3 Zrotation Xrotation Yrotation
                JOINT lMid2
                {
                  OFFSET 3.10165 -0.590103 1.0647
                  CHANNELS 3 Zrotation Xrotation Yrotation
                  End Site
                  {
                    OFFSET 2.48547 -0.328903 0.83742
                  }
                }
              }
              JOINT lRing1
              {
                OFFSET 8.82822 0.546677 1.51678
                CHANNELS 3 Zrotation Xrotation Yrotation
                JOINT lRing2
                {
                  OFFSET 2.60934 -0.819778 -0.0198488
                  CHANNELS 3 Zrotation Xrotation Yrotation
                  End Site
                  {
                    OFFSET 2.33842 -0.294052 0.168128
                  }
                }
              }
              JOINT lPinky1
              {
                OFFSET 8.27202 -0.0477905 -0.4584
                CHANNELS 3 Zrotation Xrotation Yrotation
                JOINT lPinky2
                {
                  OFFSET 1.82734 -0.647385 -0.700984
                  CHANNELS 3 Zrotation Xrotation Yrotation
                  End Site
                  {
                    OFFSET 1.69225 -0.51767 -0.607171
                  }
                }
              }
            }
          }
        }
      }
    }
  }
  JOINT rButtock
  {
    OFFSET -8.77824 4.35084 1.2192
    CHANNELS 3 Zrotation Xrotation Yrotation
    JOINT rThigh
    {
      OFFSET 0 -1.70687 -2.19456
      CHANNELS 3 Zrotation Xrotation Yrotation
      JOINT rShin
      {
        OFFSET 0 -36.8199 0.73152
        CHANNELS 3 Zrotation Xrotation Yrotation
        JOINT rFoot
        {
          OFFSET 0.73152 -45.1104 -5.12064
          CHANNELS 3 Zrotation Xrotation Yrotation
          End Site
          {
            OFFSET -1.1221 -3.69964 12.103
          }
        }
      }
    }
  }
  JOINT lButtock
  {
    OFFSET 8.77824 4.35084 1.2192
    CHANNELS 3 Zrotation Xrotation Yrotation
    JOINT lThigh
    {
      OFFSET 0 -1.70687 -2.19456
      CHANNELS 3 Zrotation Xrotation Yrotation
      JOINT lShin
      {
        OFFSET 0 -36.8199 0.73152
        CHANNELS 3 Zrotation Xrotation Yrotation
        JOINT lFoot
        {
          OFFSET -0.73152 -45.1104 -5.12064
          CHANNELS 3 Zrotation Xrotation Yrotation
          End Site
          {
            OFFSET 1.1221 -3.69964 12.103
          }
        }
      }
    }
  }
}
MOTION
Frames:	4
Frame Time:	0.03333
-61.752407456828976 51.19896141463218 -8.582571905301165 -159.44207763671875 -69.39192962646484 175.03561401367188 2.8713037967681885 10.342996597290039 13.819003105163574 1.1287999153137207 -15.169902801513672 2.8214774131774902 2.6530861854553223 14.122908592224121 13.221504211425781 6.849005222320557 -17.692232131958008 27.64765739440918 -0.6067059636116028 -0.5913894176483154 0.6505351066589355 -0.08173199743032455 0.08460327237844467 -0.5024845004081726 -0.2941415011882782 0.8743129968643188 1.2445636987686157 163.2948455810547 79.99224090576172 -102.48046875 -25.68447494506836 -49.926124572753906 101.45146942138672 -103.1948013305664 -82.94981384277344 -111.14611053466797 0.9230821132659912 -0.5011793971061707 -0.27982813119888306 0.6590576767921448 -0.7521992921829224 -0.6175692677497864 -0.10155690461397171 -0.08131872862577438 -1.1884281635284424 7.115274429321289 5.36278772354126 -0.29380863904953003 -0.422610878944397 -0.16812996566295624 0.3153817355632782 2.7559187412261963 0.8166530728340149 -0.36466071009635925 -0.8197063207626343 -0.2516557276248932 -0.8222618699073792 10.284464836120605 0.1307930052280426 -0.5658002495765686 -0.3159909248352051 -0.8034502267837524 0.36344218254089355 2.4840824604034424 -1.4788299798965454 -1.1560838222503662 -0.4742729067802429 -0.22295217216014862 -1.1177645921707153 -73.83514404296875 -16.976364135742188 -48.560123443603516 26.553430557250977 -25.949504852294922 -64.92504119873047 2.1618845462799072 43.78892517089844 -5.54517126083374 -0.2899423837661743 -0.7309339642524719 -0.6216601133346558 -0.4673124849796295 1.551332950592041 -1.2524129152297974 -1.1507905721664429 -0.9060815572738647 -0.1030273512005806 -7.306146144866943 6.9416584968566895 -0.10923317074775696 0.059394847601652145 0.18183587491512299 -0.3747004568576813 -3.183025360107422 1.1580716371536255 -0.6696619391441345 -0.16699065268039703 0.1401224136352539 -0.30717113614082336 -10.003485679626465 1.2905125617980957 0.006969881244003773 -0.4965161383152008 -0.3391025960445404 -0.7726305723190308 -2.5576510429382324 -1.9538382291793823 0.1503436267375946 -0.9882608652114868 -1.506368637084961 -1.541115164756775 -35.238826751708984 -33.19502258300781 -45.79769515991211 -158.85049438476562 85.0222396850586 161.6190948486328 -21.271995544433594 -30.5214900970459 -35.076576232910156 0.7411303520202637 -0.06857150048017502 0.23387998342514038 90.31959533691406 -31.463390350341797 93.53079223632812 159.25291442871094 82.28766632080078 -159.31817626953125 -2.601846694946289 -4.010859489440918 -14.442840576171875
-62.39050731458855 50.45365800258956 -7.516422277987899 -157.79702758789062 -71.26998901367188 178.43746948242188 2.684580087661743 10.153380393981934 13.752758979797363 1.1272333860397339 -15.14261245727539 2.6403353214263916 2.5935940742492676 14.135222434997559 13.183597564697266 6.936009407043457 -17.660842895507812 27.44257926940918 -0.606153130531311 -0.5886431932449341 0.7297529578208923 -0.13943272829055786 0.01142557431012392 -0.4875491261482239 -0.30976319313049316 0.928116500377655 1.2428375482559204 161.69515991210938 79.97308349609375 -100.90390014648438 -25.610647201538086 -49.86128234863281 101.44563293457031 -102.15179443359375 -83.0840072631836 -110.04940032958984 0.955232560634613 -0.5645001530647278 -0.2944248914718628 0.6843533515930176 -0.7629725337028503 -0.6248074173927307 -0.1204545870423317 -0.06709076464176178 -1.182808756828308 7.054379940032959 5.420179843902588 -0.26871126890182495 -0.3908250033855438 -0.20615872740745544 0.2921222746372223 2.7690792083740234 0.7646178007125854 -0.34867724776268005 -0.828445553779602 -0.2631062865257263 -0.8999675512313843 10.287251472473145 0.10052960366010666 -0.5816684365272522 -0.3807756304740906 -0.8304066061973572 0.33336466550827026 2.508047580718994 -1.4185036420822144 -1.1841514110565186 -0.5203003883361816 -0.23283302783966064 -1.1872448921203613 -73.94483947753906 -17.611764907836914 -49.00880432128906 26.445781707763672 -25.5458927154541 -64.39644622802734 2.264946222305298 44.273193359375 -5.54603385925293 -0.33744239807128906 -0.7398781180381775 -0.6760369539260864 -0.45936304330825806 1.5921993255615234 -1.2909300327301025 -1.1462582349777222 -0.8323440551757812 -0.0492713525891304 -7.31796932220459 6.983412742614746 -0.12436020374298096 0.043380968272686005 0.22039644420146942 -0.4018935561180115 -3.096388101577759 1.2581510543823242 -0.6655099391937256 -0.14296795427799225 0.14120611548423767 -0.3154923915863037 -10.054641723632812 1.3412892818450928 -0.005569757428020239 -0.4970748722553253 -0.2984246611595154 -0.8108898997306824 -2.570176839828491 -1.9534960985183716 0.14218363165855408 -1.0089091062545776 -1.5583786964416504 -1.6223384141921997 -36.1407356262207 -33.00959396362305 -46.2740364074707 -160.17193603515625 84.69145965576172 162.9714813232422 -20.89295196533203 -30.498939514160156 -34.79780960083008 0.8417832851409912 -0.05889860913157463 0.3192462623119354 90.55905151367188 -31.4693603515625 94.07003784179688 159.53160095214844 81.92930603027344 -159.66561889648438 -2.632969617843628 -3.9913320541381836 -14.463566780090332
-62.9750804739266 49.758382311122695 -6.414207544309673 -155.60923767089844 -73.32382202148438 -177.61456298828125 2.4851789474487305 9.959877967834473 13.675237655639648 1.1277443170547485 -15.104436874389648 2.471839427947998 2.5206947326660156 14.1453857421875 13.116788864135742 7.0282440185546875 -17.658056259155273 27.200790405273438 -0.6078594326972961 -0.5848127603530884 0.798005223274231 -0.19398726522922516 -0.06333094835281372 -0.4763879179954529 -0.31607499718666077 0.9779244661331177 1.2318421602249146 159.81500244140625 79.94731903076172 -99.06524658203125 -25.547988891601562 -49.7459831237793 101.39305114746094 -100.73422241210938 -83.21134948730469 -108.56272888183594 0.9931588172912598 -0.6234243512153625 -0.30827534198760986 0.7044228911399841 -0.777344286441803 -0.630074679851532 -0.12945835292339325 -0.04016738012433052 -1.1687796115875244 7.005214691162109 5.480178356170654 -0.2359345555305481 -0.35352006554603577 -0.2357315719127655 0.2629956305027008 2.784348487854004 0.7217298150062561 -0.3279448449611664 -0.8337588906288147 -0.2753192186355591 -0.9717566967010498 10.293399810791016 0.08199552446603775 -0.5944075584411621 -0.4496840536594391 -0.8482973575592041 0.30573388934135437 2.5211925506591797 -1.3532129526138306 -1.2063148021697998 -0.5574222207069397 -0.24862326681613922 -1.243869662284851 -74.04847717285156 -18.160598754882812 -49.43342208862305 26.332197189331055 -25.12948989868164 -63.83964538574219 2.3727660179138184 44.74625015258789 -5.555858612060547 -0.3751731812953949 -0.7546718120574951 -0.733256995677948 -0.4525127708911896 1.6234002113342285 -1.320196509361267 -1.1342945098876953 -0.7575836777687073 0.007346977945417166 -7.329545497894287 7.021183490753174 -0.13860562443733215 0.031477831304073334 0.26603269577026367 -0.4283880889415741 -3.013110637664795 1.3564157485961914 -0.6517158150672913 -0.11199069023132324 0.1315230429172516 -0.33212924003601074 -10.105961799621582 1.384683609008789 -0.012253494933247566 -0.4958299696445465 -0.2547415494918823 -0.8472158312797546 -2.5834312438964844 -1.9445189237594604 0.14787672460079193 -1.0263930559158325 -1.6065354347229004 -1.6953052282333374 -36.98469924926758 -32.832252502441406 -46.652976989746094 -161.1736297607422 84.38988494873047 164.00881958007812 -20.49763298034668 -30.43537139892578 -34.50127410888672 0.9341728687286377 -0.057221610099077225 0.4051900804042816 90.77987670898438 -31.549623489379883 94.58457946777344 159.71701049804688 81.61741638183594 -159.9102783203125 -2.653784990310669 -3.945026159286499 -14.431143760681152
-63.50162359902429 49.115774208345805 -5.282955115148784 -152.59141540527344 -75.52657318115234 -172.84886169433594 2.271925210952759 9.763335227966309 13.589373588562012 1.132227897644043 -15.057421684265137 2.3196582794189453 2.4350738525390625 14.154398918151855 13.020177841186523 7.123291015625 -17.683698654174805 26.925636291503906 -0.6116058826446533 -0.5810071229934692 0.8532956838607788 -0.24301767349243164 -0.136622354388237 -0.46954345703125 -0.3153451681137085 1.0208344459533691 1.2123452425003052 157.61077880859375 79.91055297851562 -96.92582702636719 -25.501544952392578 -49.57413101196289 101.27629852294922 -98.85446166992188 -83.32964324951172 -106.59705352783203 1.0346004962921143 -0.6772875189781189 -0.32175177335739136 0.7180435657501221 -0.795233964920044 -0.6330727338790894 -0.13030515611171722 -0.001369902049191296 -1.146024227142334 6.968071460723877 5.542625904083252 -0.19781264662742615 -0.3118569254875183 -0.25479698181152344 0.228889599442482 2.8004417419433594 0.6885557770729065 -0.3036326467990875 -0.8349848985671997 -0.2882278561592102 -1.03630530834198 10.303481101989746 0.0742742195725441 -0.6042802333831787 -0.5192350149154663 -0.8563743233680725 0.2820723056793213 2.5212411880493164 -1.284196376800537 -1.221084713935852 -0.5853582620620728 -0.26992693543434143 -1.286944031715393 -74.13594055175781 -18.612152099609375 -49.8184700012207 26.212093353271484 -24.706274032592773 -63.26270294189453 2.4836044311523438 45.19759750366211 -5.5742902755737305 -0.40164604783058167 -0.7754823565483093 -0.7933986783027649 -0.44650083780288696 1.6434783935546875 -1.3406745195388794 -1.1143066883087158 -0.6832029223442078 0.0657634511590004 -7.340564250946045 7.0533127784729 -0.1537267416715622 0.024910222738981247 0.31953495740890503 -0.4538179337978363 -2.9347009658813477 1.4515184164047241 -0.6280307769775391 -0.07533995062112808 0.11090676486492157 -0.3577520251274109 -10.155942916870117 1.4191179275512695 -0.011835305951535702 -0.4926661252975464 -0.20820794999599457 -0.8822262287139893 -2.595942258834839 -1.9288301467895508 0.16591183841228485 -1.039736270904541 -1.6499253511428833 -1.7589057683944702 -37.76898193359375 -32.67417526245117 -46.93414306640625 -161.9344024658203 84.11788940429688 164.81129455566406 -20.093175888061523 -30.333282470703125 -34.19036102294922 1.016418218612671 -0.06394794583320618 0.4882284998893738 90.98701477050781 -31.70557403564453 95.0771255493164 159.8480682373047 81.34757232666016 -160.08984375 -2.6641008853912354 -3.8778839111328125 -14.344287872314453
